<svg xmlns="http://www.w3.org/2000/svg" version="1.1" xmlns:xlink="http://www.w3.org/1999/xlink" xmlns:svgjs="http://svgjs.dev/svgjs" width="128" height="128" viewBox="0 0 128 128"><g transform="matrix(0.8046875,0,0,0.8046875,12.760752631578946,17.867729202809272)"><svg viewBox="0 0 95 86" data-background-color="#ffffff" preserveAspectRatio="xMidYMid meet" height="115" width="128" xmlns="http://www.w3.org/2000/svg" xmlns:xlink="http://www.w3.org/1999/xlink"><g id="tight-bounds" transform="matrix(1,0,0,1,-0.24049999999999727,-0.12756125491975467)"><svg viewBox="0 0 95.481 86.25512250983951" height="86.25512250983951" width="95.481"><g><svg viewBox="0 0 95.481 86.25512250983951" height="86.25512250983951" width="95.481"><g><svg viewBox="0 0 95.481 86.25512250983951" height="86.25512250983951" width="95.481"><g id="textblocktransform"><svg viewBox="0 0 95.481 86.25512250983951" height="86.25512250983951" width="95.481" id="textblock"><g><svg viewBox="0 0 95.481 86.25512250983951" height="86.25512250983951" width="95.481"><g><svg viewBox="0 0 95.481 86.25512250983951" height="86.25512250983951" width="95.481"><g><svg xmlns="http://www.w3.org/2000/svg" xmlns:xlink="http://www.w3.org/1999/xlink" xmlns:a="http://ns.adobe.com/AdobeSVGViewerExtensions/3.0/" version="1.1" x="0" y="0" viewBox="0.00031996215446367104 -0.000022005772136735047 100.00060782649948 90.33802200577213" overflow="visible" enable-background="new 0 -4.831 100 100" xml:space="preserve" width="95.481" height="86.25512250983951" class="icon-icon-0" data-fill-palette-color="accent" id="icon-0"><path fill="#ffffff" d="M98.2 17.305c-2.493-6.252-7.495-11.51-14.416-14.766C77.667-0.34 71.076-0.686 65.085 1.073 59.096 2.832 53.71 7.626 50 13.168 46.291 7.626 40.905 2.832 34.916 1.073S22.334-0.34 16.217 2.539C9.297 5.794 4.295 11.053 1.801 17.305c-2.493 6.252-2.504 13.511 0.638 20.73C9.161 53.477 49.787 89.719 50 90.338c0.213-0.619 40.84-36.861 47.561-52.303C100.705 30.815 100.693 23.557 98.2 17.305z" data-fill-palette-color="accent"></path></svg></g></svg></g></svg></g></svg></g></svg></g></svg></g><defs></defs></svg><rect width="95.481" height="86.25512250983951" fill="none" stroke="none" visibility="hidden"></rect></g></svg></g></svg>