<svg xmlns="http://www.w3.org/2000/svg" version="1.1" xmlns:xlink="http://www.w3.org/1999/xlink" xmlns:svgjs="http://svgjs.dev/svgjs" width="1000" height="141" viewBox="0 0 1000 141"><g transform="matrix(1,0,0,1,-0.6060606060606233,0.37858407079646383)"><svg viewBox="0 0 396 56" data-background-color="#ffffff" preserveAspectRatio="xMidYMid meet" height="141" width="1000" xmlns="http://www.w3.org/2000/svg" xmlns:xlink="http://www.w3.org/1999/xlink"><g id="tight-bounds" transform="matrix(1,0,0,1,0.2400000000000091,-0.15035963095462535)"><svg viewBox="0 0 395.52 56.30071926190924" height="56.30071926190924" width="395.52"><g><svg viewBox="0 0 395.52 56.30071926190924" height="56.30071926190924" width="395.52"><g><svg viewBox="0 0 395.52 56.30071926190924" height="56.30071926190924" width="395.52"><g id="textblocktransform"><svg viewBox="0 0 395.52 56.30071926190924" height="56.30071926190924" width="395.52" id="textblock"><g><svg viewBox="0 0 395.52 56.30071926190924" height="56.30071926190924" width="395.52"><g transform="matrix(1,0,0,1,0,0)"><svg width="395.52" viewBox="3.25 -36.65 265.53 37.8" height="56.30071926190924" data-palette-color="#219ebc"><path d="M7.95 0.65L3.25 0.05 8.05-36.65 12.75-36.1 7.95 0.65ZM26.95 0L13.05-14.6 13.3-18.1 28-29.7 30.95-26 18.25-15.95 30.3-3.25 26.95 0ZM38.65-1.85L33.95-2.25 35.95-23.1 38.9-25.15 49.8-22.2 60.35-25.15 63.35-22.95 64.4-2.15 59.7-1.9 58.75-19.75 51.9-17.9 52-2.1 47.35-2 47.2-17.95 40.4-19.85 38.65-1.85ZM90.65 0.6L71.3-3 69.4-5.65 71.8-23.45 73.9-25.45 88.55-26.65 90.85-25.4 95.1-17 93.45-13.65 77.9-10.4 76.9-14.95 89.45-17.65 87.35-21.8 76.15-20.95 74.35-7.2 91.55-4 90.65 0.6ZM99.34-0.25L98.59-26.6 103.29-26.75 103.44-20.6 114.84-26 116.84-21.65 103.59-15.45 104.09-0.35 99.34-0.25ZM119.59-0.25L118.84-26.6 123.54-26.75 123.69-20.6 135.09-26 137.09-21.65 123.84-15.45 124.34-0.35 119.59-0.25ZM139.84-0.25L139.09-26.6 143.79-26.75 143.94-20.6 155.34-26 157.34-21.65 144.09-15.45 144.59-0.35 139.84-0.25ZM173.14 1.05L158.84-1.6 159.74-6.25 172.34-3.85 176.04-10.25 161.14-12.35 159.14-14.95 159.89-24.6 162.09-26.75 178.09-28 178.39-23.3 164.49-22.25 164.04-16.75 180.09-14.45 181.84-10.95 175.59-0.05 173.14 1.05ZM192.93-20.1L204.08-22.7 206.98-20.65 208.73-1.05 204.03-0.6 202.53-17.55 192.18-15.05 190.03-0.3 185.33-0.95 190.53-35.7 195.13-35.05 192.93-20.1ZM234.73-1.65L216.43-2.7 214.23-5.25 215.43-22.4 217.68-24.55 234.28-25.25 236.73-22.95 237.23-4.05 234.73-1.65ZM219.13-7.25L232.48-6.5 232.13-20.45 219.98-19.95 219.13-7.25ZM256.78-18.45L255.63-6.15 265.43-3.35 264.18 1.15 252.43-2.15 250.73-4.65 251.98-18.1 242.13-17.4 241.73-22.15 252.43-22.9 252.93-28.15 257.63-27.7 257.23-23.2 268.48-24 268.78-19.35 256.78-18.45Z" opacity="1" transform="matrix(1,0,0,1,0,0)" fill="#219ebc" class="wordmark-text-0" data-fill-palette-color="primary" id="text-0"></path></svg></g></svg></g></svg></g></svg></g></svg></g><defs></defs></svg><rect width="395.52" height="56.30071926190924" fill="none" stroke="none" visibility="hidden"></rect></g></svg></g></svg>